<svg xmlns="http://www.w3.org/2000/svg" viewBox="0 0 64 64">
  <defs>
    <linearGradient id="g" x1="0" y1="0" x2="1" y2="1">
      <stop offset="0" stop-color="#024f02"/>
      <stop offset="1" stop-color="#1004b4"/>
    </linearGradient>
  </defs>
  <rect x="2" y="2" width="60" height="60" rx="16" fill="url(#g)"/>
  <g fill="#ffffff">
    <ellipse cx="24" cy="22.5" rx="4.6" ry="6" transform="rotate(-14 24 22.5)"/>
    <ellipse cx="40" cy="22.5" rx="4.6" ry="6" transform="rotate(14 40 22.5)"/>
    <ellipse cx="14.8" cy="32.5" rx="4" ry="5.2" transform="rotate(-30 14.8 32.5)"/>
    <ellipse cx="49.2" cy="32.5" rx="4" ry="5.2" transform="rotate(30 49.2 32.5)"/>
    <path d="M32 30c6.4 0 12.6 5.2 12.6 11.4 0 4.4-3.4 7.1-7.4 7.1-2 0-3.6-.6-5.2-1.2-1.6.6-3.2 1.2-5.2 1.2-4 0-7.4-2.7-7.4-7.1C19.4 35.2 25.6 30 32 30z"/>
  </g>
  <g stroke="#ffffff" stroke-width="3.4" stroke-linecap="round">
    <line x1="32" y1="37.2" x2="32" y2="45.2" opacity="0"/>
  </g>
  <g fill="#024f02">
    <rect x="29.9" y="36.4" width="4.2" height="10.4" rx="1.6"/>
    <rect x="26.8" y="39.5" width="10.4" height="4.2" rx="1.6"/>
  </g>
</svg>
